<svg width="40" height="33" viewBox="0 0 40 33" fill="none" xmlns="http://www.w3.org/2000/svg">
<path d="M12.565 32.525C27.6591 32.525 35.9184 20.008 35.9184 9.17167C35.9184 8.81953 35.9184 8.46739 35.9024 8.11525C37.503 6.96279 38.8956 5.5062 40 3.85754C38.5274 4.51381 36.9428 4.94598 35.2781 5.15406C36.9748 4.14566 38.2713 2.52901 38.8956 0.608243C37.3109 1.55262 35.5502 2.22489 33.6775 2.59304C32.1729 0.992396 30.044 0 27.6911 0C23.1613 0 19.4798 3.68147 19.4798 8.21128C19.4798 8.85154 19.5598 9.47579 19.6879 10.084C12.8691 9.7479 6.81873 6.46659 2.76911 1.5046C2.06483 2.72109 1.66467 4.12965 1.66467 5.63425C1.66467 8.48339 3.12125 10.9964 5.31413 12.469C3.96959 12.421 2.70508 12.0528 1.60064 11.4446C1.60064 11.4766 1.60064 11.5086 1.60064 11.5566C1.60064 15.5262 4.43377 18.8555 8.17927 19.6078C7.491 19.7999 6.77071 19.896 6.01841 19.896C5.4902 19.896 4.97799 19.8479 4.48179 19.7519C5.52221 23.0172 8.56343 25.3862 12.1489 25.4502C9.33173 27.6591 5.79432 28.9716 1.95278 28.9716C1.29652 28.9716 0.640256 28.9396 0 28.8595C3.61745 31.1645 7.93918 32.525 12.565 32.525Z" fill="#1DA1F2"/>
</svg>
