<svg width="75" height="74" viewBox="0 0 75 74" fill="none" xmlns="http://www.w3.org/2000/svg">
<g filter="url(#filter0_di)">
<path d="M4.84325 38.2404C4.57184 37.7792 4.42871 37.2538 4.42871 36.7187V32.5715C4.42871 30.9147 5.77186 29.5715 7.42871 29.5715L67.4287 29.5715C69.0856 29.5715 70.4287 30.9147 70.4287 32.5715V36.7187C70.4287 37.2538 70.2856 37.7792 70.0142 38.2404L54.7988 64.0932C54.2597 65.0092 53.2762 65.5715 52.2133 65.5715H22.6441C21.5813 65.5715 20.5977 65.0092 20.0586 64.0932L4.84325 38.2404Z" fill="white" fill-opacity="0.59"/>
</g>
<path d="M5.07435 31.2579C4.1472 29.6889 4.1472 27.7397 5.07435 26.1706L18.8341 2.88492C19.7337 1.36256 21.3704 0.428566 23.1387 0.428566H50.861C52.6293 0.428566 54.266 1.36256 55.1656 2.88492L68.9254 26.1706C69.8525 27.7397 69.8525 29.6889 68.9254 31.2579L55.1656 54.5436C54.266 56.066 52.6293 57 50.861 57H23.1387C21.3704 57 19.7337 56.066 18.8341 54.5436L5.07435 31.2579Z" fill="white"/>
<defs>
<filter id="filter0_di" x="0.428711" y="29.5715" width="74" height="44" filterUnits="userSpaceOnUse" color-interpolation-filters="sRGB">
<feFlood flood-opacity="0" result="BackgroundImageFix"/>
<feColorMatrix in="SourceAlpha" type="matrix" values="0 0 0 0 0 0 0 0 0 0 0 0 0 0 0 0 0 0 127 0"/>
<feOffset dy="4"/>
<feGaussianBlur stdDeviation="2"/>
<feColorMatrix type="matrix" values="0 0 0 0 0 0 0 0 0 0 0 0 0 0 0 0 0 0 0.25 0"/>
<feBlend mode="normal" in2="BackgroundImageFix" result="effect1_dropShadow"/>
<feBlend mode="normal" in="SourceGraphic" in2="effect1_dropShadow" result="shape"/>
<feColorMatrix in="SourceAlpha" type="matrix" values="0 0 0 0 0 0 0 0 0 0 0 0 0 0 0 0 0 0 127 0" result="hardAlpha"/>
<feOffset dy="4"/>
<feGaussianBlur stdDeviation="2"/>
<feComposite in2="hardAlpha" operator="arithmetic" k2="-1" k3="1"/>
<feColorMatrix type="matrix" values="0 0 0 0 0 0 0 0 0 0 0 0 0 0 0 0 0 0 0.25 0"/>
<feBlend mode="normal" in2="shape" result="effect2_innerShadow"/>
</filter>
</defs>
</svg>
